<?xml version="1.0" encoding="iso-8859-1"?>
<!-- Generator: Adobe Illustrator 19.0.0, SVG Export Plug-In . SVG Version: 6.00 Build 0)  -->
<svg version="1.1" id="Capa_1" xmlns="http://www.w3.org/2000/svg" xmlns:xlink="http://www.w3.org/1999/xlink" x="0px" y="0px"
	 viewBox="0 0 445.04 445.04" style="enable-background:new 0 0 445.04 445.04;" xml:space="preserve">
<g>
	<g>
		<path d="M326.361,137.36l-8-129.84c-0.254-4.23-3.763-7.528-8-7.52h-150.4c-4.237-0.008-7.746,3.29-8,7.52l-8,129.84
			c-13.8,14.713-23.821,32.558-29.2,52h-21.92c-4.418,0-8,3.582-8,8v53.84c0,4.418,3.582,8,8,8h23.04
			c5.633,18.102,15.318,34.682,28.32,48.48l8,129.84c0.254,4.23,3.763,7.528,8,7.52h150.16c4.237,0.008,7.746-3.29,8-7.52l8-129.84
			C371.478,259.87,371.478,185.17,326.361,137.36z M110.361,243.12h-9.52v-37.84h9.52V243.12z M167.481,15.92h134.88l6.4,106.24
			c-43.908-32.721-104.092-32.721-148,0L167.481,15.92z M302.361,428.96h-134.88l-6.4-106.24c43.908,32.721,104.092,32.721,148,0
			L302.361,428.96z M235.081,331.28c-60.089,0-108.8-48.711-108.8-108.8c0-60.089,48.711-108.8,108.8-108.8
			c60.089,0,108.8,48.711,108.8,108.8C343.837,282.55,295.151,331.236,235.081,331.28z"/>
	</g>
</g>
<g>
	<g>
		<path d="M235.161,126c-0.027,0-0.053,0-0.08,0v0c-53.235,0.088-96.356,43.245-96.4,96.48c0,53.284,43.196,96.48,96.48,96.48
			c53.284,0,96.48-43.196,96.48-96.48C331.641,169.195,288.445,126,235.161,126z M243.161,302.48v-13.2c0-4.418-3.582-8-8-8
			s-8,3.582-8,8v13.2c-38.048-3.868-68.132-33.952-72-72h13.28c4.418,0,8-3.582,8-8s-3.582-8-8-8h-13.36
			c3.868-38.048,33.952-68.132,72-72v13.28c0,4.418,3.582,8,8,8s8-3.582,8-8v-13.28c38.048,3.868,68.132,33.952,72,72h-13.2
			c-4.418,0-8,3.582-8,8s3.582,8,8,8h13.28C311.293,268.528,281.209,298.612,243.161,302.48z"/>
	</g>
</g>
<g>
	<g>
		<path d="M235.081,214.48h-40.64c-4.418,0-8,3.582-8,8s3.582,8,8,8h32.64v20.64c0,4.418,3.582,8,8,8s8-3.582,8-8v-28.64
			C243.081,218.062,239.499,214.48,235.081,214.48z"/>
	</g>
</g>
<g>
</g>
<g>
</g>
<g>
</g>
<g>
</g>
<g>
</g>
<g>
</g>
<g>
</g>
<g>
</g>
<g>
</g>
<g>
</g>
<g>
</g>
<g>
</g>
<g>
</g>
<g>
</g>
<g>
</g>
</svg>
